inDegrees=no
DataType=double
version=3
OpenSimVersion=4.4-2022-10-11-798caa840
endheader
time	elv_angle	shoulder_elv	shoulder_rot	elbow_flexion	pro_sup	deviation	flexion
2.4020851434	0.3316125572	1.1241570711	0.9424777627	1.4978581667	0.0000000000	0.0000000000	0.0000000000
2.4062554301	0.3316125572	1.1241570711	0.9424777627	1.4978581667	0.0000000000	0.0000000000	0.0000000000
2.4104257168	0.3316125572	1.1241570711	0.9424777627	1.4978581667	0.0000000000	0.0000000000	0.0000000000
2.4145960035	0.3316125572	1.1241570711	0.9424777627	1.4978581667	0.0000000000	0.0000000000	0.0000000000
2.4187662902	0.3316125572	1.1241570711	0.9424777627	1.4978581667	0.0000000000	0.0000000000	0.0000000000
2.4229365769	0.3316125572	1.1241570711	0.9424777627	1.4978581667	0.0000000000	0.0000000000	0.0000000000
2.4271068636	0.3316125572	1.1241570711	0.9424777627	1.4978581667	0.0000000000	0.0000000000	0.0000000000
2.4312771503	0.3316125572	1.1241570711	0.9424777627	1.4978581667	0.0000000000	0.0000000000	0.0000000000
2.4354474370	0.3316125572	1.1241570711	0.9424777627	1.4978581667	0.0000000000	0.0000000000	0.0000000000
2.4396177237	0.3316125572	1.1241570711	0.9424777627	1.4978581667	0.0000000000	0.0000000000	0.0000000000
2.4437880104	0.3316125572	1.1241570711	0.9424777627	1.4978581667	0.0000000000	0.0000000000	0.0000000000
2.4479582971	0.3316125572	1.1241570711	0.9424777627	1.4978581667	0.0000000000	0.0000000000	0.0000000000
2.4521285838	0.3316125572	1.1241570711	0.9424777627	1.4978581667	0.0000000000	0.0000000000	0.0000000000
2.4562988705	0.3316125572	1.1241570711	0.9424777627	1.4978581667	0.0000000000	0.0000000000	0.0000000000
2.4604691573	0.3316125572	1.1241570711	0.9424777627	1.4978581667	0.0000000000	0.0000000000	0.0000000000
2.4646394440	0.3316125572	1.1241570711	0.9424777627	1.4978581667	0.0000000000	0.0000000000	0.0000000000
2.4688097307	0.3316125572	1.1241570711	0.9424777627	1.4978581667	0.0000000000	0.0000000000	0.0000000000
2.4729800174	0.3316125572	1.1241570711	0.9424777627	1.4978581667	0.0000000000	0.0000000000	0.0000000000
2.4771503041	0.3316125572	1.1241570711	0.9424777627	1.4978581667	0.0000000000	0.0000000000	0.0000000000
2.4813205908	0.3316125572	1.1241570711	0.9424777627	1.4978581667	0.0000000000	0.0000000000	0.0000000000
2.4854908775	0.3316125572	1.1241570711	0.9424777627	1.4978581667	0.0000000000	0.0000000000	0.0000000000
2.4896611642	0.3316125572	1.1241570711	0.9424777627	1.4978581667	0.0000000000	0.0000000000	0.0000000000
2.4938314509	0.3316125572	1.1241570711	0.9424777627	1.4978581667	0.0000000000	0.0000000000	0.0000000000
2.4980017376	0.3316125572	1.1241570711	0.9424777627	1.4978581667	0.0000000000	0.0000000000	0.0000000000
2.5021720243	0.3316125572	1.1241570711	0.9424777627	1.4978581667	0.0000000000	0.0000000000	0.0000000000
2.5063423110	0.3316125572	1.1241570711	0.9424777627	1.4978581667	0.0000000000	0.0000000000	0.0000000000
2.5105125977	0.3316125572	1.1241570711	0.9424777627	1.4978581667	0.0000000000	0.0000000000	0.0000000000
2.5146828844	0.3316125572	1.1241570711	0.9424777627	1.4978581667	0.0000000000	0.0000000000	0.0000000000
2.5188531712	0.3316125572	1.1241570711	0.9424777627	1.4978581667	0.0000000000	0.0000000000	0.0000000000
2.5230234579	0.3316125572	1.1241570711	0.9424777627	1.4978581667	0.0000000000	0.0000000000	0.0000000000
2.5271937446	0.3316125572	1.1241570711	0.9424777627	1.4978581667	0.0000000000	0.0000000000	0.0000000000
2.5313640313	0.3316125572	1.1241570711	0.9424777627	1.4978581667	0.0000000000	0.0000000000	0.0000000000
2.5355343180	0.3316125572	1.1241570711	0.9424777627	1.4978581667	0.0000000000	0.0000000000	0.0000000000
2.5397046047	0.3316125572	1.1241570711	0.9424777627	1.4978581667	0.0000000000	0.0000000000	0.0000000000
2.5438748914	0.3316125572	1.1241570711	0.9424777627	1.4978581667	0.0000000000	0.0000000000	0.0000000000
2.5480451781	0.3316125572	1.1241570711	0.9424777627	1.4978581667	0.0000000000	0.0000000000	0.0000000000
2.5522154648	0.3316125572	1.1241570711	0.9424777627	1.4978581667	0.0000000000	0.0000000000	0.0000000000
2.5563857515	0.3316125572	1.1241570711	0.9424777627	1.4978581667	0.0000000000	0.0000000000	0.0000000000
2.5605560382	0.3316125572	1.1241570711	0.9424777627	1.4978581667	0.0000000000	0.0000000000	0.0000000000
2.5647263249	0.3316125572	1.1241570711	0.9424777627	1.4978581667	0.0000000000	0.0000000000	0.0000000000
2.5688966116	0.3316125572	1.1241570711	0.9424777627	1.4978581667	0.0000000000	0.0000000000	0.0000000000
2.5730668983	0.3316125572	1.1241570711	0.9424777627	1.4978581667	0.0000000000	0.0000000000	0.0000000000
2.5772371851	0.3316125572	1.1241570711	0.9424777627	1.4978581667	0.0000000000	0.0000000000	0.0000000000
2.5814074718	0.3316125572	1.1241570711	0.9424777627	1.4978581667	0.0000000000	0.0000000000	0.0000000000
2.5855777585	0.3316125572	1.1241570711	0.9424777627	1.4978581667	0.0000000000	0.0000000000	0.0000000000
2.5897480452	0.3316125572	1.1241570711	0.9424777627	1.4978581667	0.0000000000	0.0000000000	0.0000000000
2.5939183319	0.3316125572	1.1241570711	0.9424777627	1.4978581667	0.0000000000	0.0000000000	0.0000000000
2.5980886186	0.3316125572	1.1241570711	0.9424777627	1.4978581667	0.0000000000	0.0000000000	0.0000000000
2.6022589053	0.3316125572	1.1241570711	0.9424777627	1.4978581667	0.0000000000	0.0000000000	0.0000000000
2.6064291920	0.3316125572	1.1241570711	0.9424777627	1.4978581667	0.0000000000	0.0000000000	0.0000000000
2.6105994787	0.3316125572	1.1241570711	0.9424777627	1.4978581667	0.0000000000	0.0000000000	0.0000000000
2.6147697654	0.3316125572	1.1241570711	0.9424777627	1.4978581667	0.0000000000	0.0000000000	0.0000000000
2.6189400521	0.3316125572	1.1241570711	0.9424777627	1.4978581667	0.0000000000	0.0000000000	0.0000000000
2.6231103388	0.3316125572	1.1241570711	0.9424777627	1.4978581667	0.0000000000	0.0000000000	0.0000000000
2.6272806255	0.3316125572	1.1241570711	0.9424777627	1.4978581667	0.0000000000	0.0000000000	0.0000000000
2.6314509123	0.3316125572	1.1241570711	0.9424777627	1.4978581667	0.0000000000	0.0000000000	0.0000000000
2.6356211990	0.3316125572	1.1241570711	0.9424777627	1.4978581667	0.0000000000	0.0000000000	0.0000000000
2.6397914857	0.3316125572	1.1241570711	0.9424777627	1.4978581667	0.0000000000	0.0000000000	0.0000000000
2.6439617724	0.3316125572	1.1241570711	0.9424777627	1.4978581667	0.0000000000	0.0000000000	0.0000000000
2.6481320591	0.3316125572	1.1241570711	0.9424777627	1.4978581667	0.0000000000	0.0000000000	0.0000000000
2.6523023458	0.3316125572	1.1241570711	0.9424777627	1.4978581667	0.0000000000	0.0000000000	0.0000000000
2.6564726325	0.3316125572	1.1241567135	0.9424777627	1.4978591204	0.0000000000	0.0000000000	0.0000000000
2.6606429192	0.3316125572	1.1241543293	0.9424777627	1.4978650808	0.0000000000	0.0000000000	0.0000000000
2.6648132059	0.3316125572	1.1241482496	0.9424777627	1.4978809357	0.0000000000	0.0000000000	0.0000000000
2.6689834926	0.3316125572	1.1241365671	0.9424777627	1.4979114532	0.0000000000	0.0000000000	0.0000000000
2.6731537793	0.3316125572	1.1241174936	0.9424777627	1.4979610443	0.0000000000	0.0000000000	0.0000000000
2.6773240660	0.3316125572	1.1240894794	0.9424777627	1.4980334044	0.0000000000	0.0000000000	0.0000000000
2.6814943527	0.3316125572	1.1240512133	0.9424777627	1.4981327057	0.0000000000	0.0000000000	0.0000000000
2.6856646394	0.3316125572	1.1240010262	0.9424777627	1.4982627630	0.0000000000	0.0000000000	0.0000000000
2.6898349262	0.3316125572	1.1239377260	0.9424777627	1.4984265566	0.0000000000	0.0000000000	0.0000000000
2.6940052129	0.3316125572	1.1238601208	0.9424777627	1.4986270666	0.0000000000	0.0000000000	0.0000000000
2.6981754996	0.3316125572	1.1237670183	0.9424777627	1.4988675117	0.0000000000	0.0000000000	0.0000000000
2.7023457863	0.3316125572	1.1236574650	0.9424777627	1.4991503954	0.0000000000	0.0000000000	0.0000000000
2.7065160730	0.3316125572	1.1235302687	0.9424777627	1.4994779825	0.0000000000	0.0000000000	0.0000000000
2.7106863597	0.3316125572	1.1233845949	0.9424777627	1.4998525381	0.0000000000	0.0000000000	0.0000000000
2.7148566464	0.3316125572	1.1232197285	0.9424777627	1.5002758503	0.0000000000	0.0000000000	0.0000000000
2.7190269331	0.3316125572	1.1230350733	0.9424777627	1.5007493496	0.0000000000	0.0000000000	0.0000000000
2.7231972198	0.3316125572	1.1228294373	0.9424777627	1.5012749434	0.0000000000	0.0000000000	0.0000000000
2.7273675065	0.3316125572	1.1226027012	0.9424777627	1.5018532276	0.0000000000	0.0000000000	0.0000000000
2.7315377932	0.3316125572	1.1223542690	0.9424777627	1.5024855137	0.0000000000	0.0000000000	0.0000000000
2.7357080799	0.3316125572	1.1220834255	0.9424777627	1.5031723976	0.0000000000	0.0000000000	0.0000000000
2.7398783666	0.3316125572	1.1217899323	0.9424777627	1.5039144754	0.0000000000	0.0000000000	0.0000000000
2.7440486533	0.3316125572	1.1214733124	0.9424777627	1.5047118664	0.0000000000	0.0000000000	0.0000000000
2.7482189401	0.3316125572	1.1211335659	0.9424777627	1.5055648088	0.0000000000	0.0000000000	0.0000000000
2.7523892268	0.3316125572	1.1207703352	0.9424777627	1.5064730644	0.0000000000	0.0000000000	0.0000000000
2.7565595135	0.3316125572	1.1203835011	0.9424777627	1.5074362755	0.0000000000	0.0000000000	0.0000000000
2.7607298002	0.3316125572	1.1199728251	0.9424777627	1.5084540844	0.0000000000	0.0000000000	0.0000000000
2.7649000869	0.3316125572	1.1195384264	0.9424777627	1.5095257759	0.0000000000	0.0000000000	0.0000000000
2.7690703736	0.3316125572	1.1190804243	0.9424777627	1.5106502771	0.0000000000	0.0000000000	0.0000000000
2.7732406603	0.3316125572	1.1185984612	0.9424777627	1.5118269920	0.0000000000	0.0000000000	0.0000000000
2.7774109470	0.3316125572	1.1180931330	0.9424777627	1.5130544901	0.0000000000	0.0000000000	0.0000000000
2.7815812337	0.3316125572	1.1175645590	0.9424777627	1.5143314600	0.0000000000	0.0000000000	0.0000000000
2.7857515204	0.3316125572	1.1170127392	0.9424777627	1.5156564713	0.0000000000	0.0000000000	0.0000000000
2.7899218071	0.3316125572	1.1164380312	0.9424777627	1.5170279741	0.0000000000	0.0000000000	0.0000000000
2.7940920938	0.3316125572	1.1158406734	0.9424777627	1.5184444189	0.0000000000	0.0000000000	0.0000000000
2.7982623805	0.3316125572	1.1152212620	0.9424777627	1.5199038982	0.0000000000	0.0000000000	0.0000000000
